<?xml version="1.0" standalone="no"?><!DOCTYPE svg PUBLIC "-//W3C//DTD SVG 1.1//EN" "http://www.w3.org/Graphics/SVG/1.1/DTD/svg11.dtd"><svg t="1687403257357" class="icon" viewBox="0 0 1024 1024" version="1.1" xmlns="http://www.w3.org/2000/svg" p-id="3839" xmlns:xlink="http://www.w3.org/1999/xlink" width="200" height="200"><path d="M346.656 64c-64.144 62.544-101.44 136.144-111.872 220.8-15.664 126.976 10.016 167.488 40.288 357.344 20.16 126.56-40.8 232.528-182.88 317.856 36.352-100.64 45.44-197.328 27.264-290.08-27.248-139.152-92.768-272.368-27.248-419.36C135.888 152.576 220.688 90.4 346.656 64z m306.672 0c-64.144 62.544-101.44 136.144-111.872 220.8-15.664 126.976 10.032 167.488 40.288 357.344 20.16 126.56-40.8 232.528-182.88 317.856 36.352-100.64 45.44-197.328 27.264-290.08-27.248-139.152-92.768-272.368-27.248-419.36C442.56 152.576 527.36 90.4 653.328 64zM960 64c-64.144 62.544-101.44 136.144-111.872 220.8-15.664 126.976 10.032 167.488 40.288 357.344 20.16 126.56-40.784 232.528-182.864 317.856 36.336-100.64 45.424-197.328 27.248-290.08-27.248-139.152-92.768-272.368-27.248-419.36C749.232 152.576 834.048 90.4 960 64z" fill="#0078FF" p-id="3840" data-spm-anchor-id="a313x.7781069.0.i0" class="selected"></path></svg>